<svg width="53" height="53" viewBox="0 0 53 53" fill="none" xmlns="http://www.w3.org/2000/svg">
<path d="M29.2553 0V3.6465C32.8619 3.6465 36.2408 4.55812 39.3919 6.38137C42.3912 8.16664 44.783 10.5597 46.5673 13.5604C48.3896 16.7131 49.3008 20.0937 49.3008 23.7022H52.9455C52.9455 19.41 51.8635 15.4217 49.6994 11.7372C47.6114 8.16664 44.783 5.3368 41.2143 3.24766C37.5316 1.08255 33.5453 0 29.2553 0ZM10.4056 5.46975C9.38054 5.46975 8.48836 5.79262 7.72906 6.43835L1.86345 12.4209L2.0343 12.3069C1.08517 13.1046 0.458745 14.0922 0.155024 15.2697C-0.110731 16.4472 -0.0348013 17.5868 0.382814 18.6883C1.44584 21.6511 2.86953 24.6898 4.65389 27.8046C7.15958 32.0968 10.1398 35.9522 13.5947 39.3708C19.1376 44.9545 26.0282 49.3607 34.2666 52.5894H34.3236C35.4246 52.9692 36.5256 53.0452 37.6266 52.8173C38.7655 52.5894 39.7716 52.0956 40.6448 51.3359L46.3965 45.5812C47.1558 44.8216 47.5354 43.8909 47.5354 42.7894C47.5354 41.6499 47.1558 40.7002 46.3965 39.9406L38.9363 32.4197C38.177 31.66 37.2279 31.2801 36.089 31.2801C34.95 31.2801 34.0009 31.66 33.2416 32.4197L29.6539 36.0662C26.7685 34.6987 24.2628 33.0084 22.1368 30.9952C20.0108 28.9441 18.3213 26.4561 17.0685 23.5313L20.7131 19.8848C21.5104 19.0492 21.909 18.0616 21.909 16.922C21.909 15.7445 21.4534 14.7949 20.5423 14.0732L20.7131 14.2441L13.0821 6.43835C12.3228 5.79262 11.4307 5.46975 10.4056 5.46975ZM29.2553 7.293V10.9395C31.5711 10.9395 33.6972 11.5093 35.6334 12.6488C37.6076 13.7883 39.1641 15.3457 40.3031 17.3209C41.442 19.2581 42.0115 21.3852 42.0115 23.7022H45.6562C45.6562 20.7395 44.9158 17.9856 43.4352 15.4406C41.9546 12.9717 39.9804 10.9965 37.5127 9.51508C34.969 8.03369 32.2165 7.293 29.2553 7.293ZM10.4056 9.11625C10.5195 9.11625 10.6524 9.17322 10.8042 9.28718L18.2644 16.922C18.3023 17.074 18.2644 17.2069 18.1505 17.3209L12.7404 22.6767L13.1391 23.8162L13.8794 25.4115C14.4868 26.703 15.1892 27.9565 15.9865 29.172C17.0874 30.8813 18.3023 32.3437 19.6311 33.5592C21.4155 35.3065 23.5605 36.9018 26.0662 38.3452C27.319 39.0669 28.3821 39.5987 29.2553 39.9406L30.3942 40.4534L35.9181 34.9266C35.9941 34.8507 36.051 34.8127 36.089 34.8127C36.1269 34.8127 36.1839 34.8507 36.2598 34.9266L43.9477 42.6185C44.0237 42.6944 44.0616 42.7514 44.0616 42.7894C44.0616 42.7894 44.0237 42.8274 43.9477 42.9033L38.253 48.544C37.4177 49.2657 36.5066 49.4556 35.5195 49.1138C27.7746 46.113 21.3206 42.0107 16.1573 36.8069C12.9682 33.6162 10.1778 29.9887 7.786 25.9243C6.07758 22.9995 4.7488 20.1697 3.79967 17.4348V17.3778C3.64781 17.036 3.62883 16.6372 3.74272 16.1813C3.85662 15.6875 4.06543 15.3077 4.36915 15.0418L10.007 9.28718C10.1209 9.17322 10.2537 9.11625 10.4056 9.11625ZM29.2553 14.586V18.2325C30.7739 18.2325 32.0647 18.7643 33.1277 19.8278C34.1907 20.8914 34.7222 22.1829 34.7222 23.7022H38.3669C38.3669 22.0689 37.9493 20.5495 37.114 19.1441C36.3168 17.7387 35.2158 16.6372 33.8111 15.8395C32.4064 15.0038 30.8878 14.586 29.2553 14.586Z" fill="url(#paint0_linear_1240_7055)"/>
<defs>
<linearGradient id="paint0_linear_1240_7055" x1="26.4727" y1="0" x2="26.4727" y2="52.9455" gradientUnits="userSpaceOnUse">
<stop stop-color="#C44EE1"/>
<stop offset="1" stop-color="#F53E3E"/>
</linearGradient>
</defs>
</svg>
