<svg width="35" height="36" viewBox="0 0 35 36" fill="none" xmlns="http://www.w3.org/2000/svg">
<path d="M17.5 5.96924C16.7748 5.96924 16.0793 6.25732 15.5665 6.77012C15.0537 7.28291 14.7656 7.97841 14.7656 8.70361C14.7656 9.42881 15.0537 10.1243 15.5665 10.6371C16.0793 11.1499 16.7748 11.438 17.5 11.438C18.2252 11.438 18.9207 11.1499 19.4335 10.6371C19.9463 10.1243 20.2344 9.42881 20.2344 8.70361C20.2344 7.97841 19.9463 7.28291 19.4335 6.77012C18.9207 6.25732 18.2252 5.96924 17.5 5.96924ZM12.5781 8.70361C12.5781 7.39825 13.0967 6.14635 14.0197 5.22332C14.9427 4.30029 16.1946 3.78174 17.5 3.78174C18.8054 3.78174 20.0573 4.30029 20.9803 5.22332C21.9033 6.14635 22.4219 7.39825 22.4219 8.70361C22.4219 10.009 21.9033 11.2609 20.9803 12.1839C20.0573 13.1069 18.8054 13.6255 17.5 13.6255C16.1946 13.6255 14.9427 13.1069 14.0197 12.1839C13.0967 11.2609 12.5781 10.009 12.5781 8.70361ZM6.5625 9.25049C5.98234 9.25049 5.42594 9.48096 5.0157 9.89119C4.60547 10.3014 4.375 10.8578 4.375 11.438C4.375 12.0181 4.60547 12.5745 5.0157 12.9848C5.42594 13.395 5.98234 13.6255 6.5625 13.6255C7.14266 13.6255 7.69906 13.395 8.1093 12.9848C8.51953 12.5745 8.75 12.0181 8.75 11.438C8.75 10.8578 8.51953 10.3014 8.1093 9.89119C7.69906 9.48096 7.14266 9.25049 6.5625 9.25049ZM2.1875 11.438C2.1875 10.2777 2.64844 9.16487 3.46891 8.3444C4.28938 7.52392 5.40218 7.06299 6.5625 7.06299C7.72282 7.06299 8.83562 7.52392 9.65609 8.3444C10.4766 9.16487 10.9375 10.2777 10.9375 11.438C10.9375 12.5983 10.4766 13.7111 9.65609 14.5316C8.83562 15.3521 7.72282 15.813 6.5625 15.813C5.40218 15.813 4.28938 15.3521 3.46891 14.5316C2.64844 13.7111 2.1875 12.5983 2.1875 11.438ZM26.25 11.438C26.25 10.8578 26.4805 10.3014 26.8907 9.89119C27.3009 9.48096 27.8573 9.25049 28.4375 9.25049C29.0177 9.25049 29.5741 9.48096 29.9843 9.89119C30.3945 10.3014 30.625 10.8578 30.625 11.438C30.625 12.0181 30.3945 12.5745 29.9843 12.9848C29.5741 13.395 29.0177 13.6255 28.4375 13.6255C27.8573 13.6255 27.3009 13.395 26.8907 12.9848C26.4805 12.5745 26.25 12.0181 26.25 11.438ZM28.4375 7.06299C27.2772 7.06299 26.1644 7.52392 25.3439 8.3444C24.5234 9.16487 24.0625 10.2777 24.0625 11.438C24.0625 12.5983 24.5234 13.7111 25.3439 14.5316C26.1644 15.3521 27.2772 15.813 28.4375 15.813C29.5978 15.813 30.7106 15.3521 31.5311 14.5316C32.3516 13.7111 32.8125 12.5983 32.8125 11.438C32.8125 10.2777 32.3516 9.16487 31.5311 8.3444C30.7106 7.52392 29.5978 7.06299 28.4375 7.06299ZM9.29688 18.5474C9.29688 18.3038 9.3162 18.0665 9.35484 17.8353L4.21422 19.2124C3.51385 19.4002 2.91679 19.8586 2.55435 20.4867C2.19192 21.1147 2.09379 21.861 2.28156 22.5614L3.2725 26.2583C3.51169 27.1515 3.93695 27.9841 4.5204 28.7015C5.10385 29.4189 5.83232 30.0049 6.65806 30.421C7.4838 30.8372 8.38818 31.0742 9.3119 31.1164C10.2356 31.1587 11.1578 31.0052 12.0181 30.6661C11.4269 30.1354 10.9159 29.5216 10.5011 28.8439C9.40731 29.0711 8.26808 28.8712 7.31693 28.2853C6.36579 27.6994 5.6748 26.7719 5.38562 25.6928L4.39469 21.996C4.37599 21.9266 4.37114 21.8542 4.38043 21.783C4.38971 21.7117 4.41295 21.643 4.4488 21.5807C4.48466 21.5185 4.53243 21.4639 4.5894 21.4201C4.64636 21.3763 4.71139 21.3441 4.78078 21.3255L9.29688 20.1158V18.5474ZM23.6873 30.8991C23.4476 30.8352 23.2117 30.7578 22.9808 30.6672C23.5724 30.1366 24.0838 29.5228 24.4989 28.845C25.5925 29.0715 26.7313 28.8712 27.682 28.2851C28.6327 27.6991 29.3232 26.7716 29.6122 25.6928L30.602 21.9949C30.6395 21.8549 30.6198 21.7058 30.5475 21.5803C30.4751 21.4548 30.3558 21.3632 30.2159 21.3255L25.7031 20.1158V18.5474C25.7031 18.3053 25.6838 18.0683 25.6452 17.8364L30.7825 19.2124C31.4829 19.4002 32.0799 19.8586 32.4424 20.4867C32.8048 21.1147 32.9029 21.861 32.7152 22.5614L31.7242 26.2583C31.2738 27.9394 30.1741 29.3728 28.6669 30.2431C27.1597 31.1134 25.3685 31.3494 23.6873 30.8991ZM13.6719 15.813C12.9467 15.813 12.2512 16.1011 11.7384 16.6139C11.2256 17.1267 10.9375 17.8222 10.9375 18.5474V24.563C10.9375 26.3035 11.6289 27.9727 12.8596 29.2034C14.0903 30.4341 15.7595 31.1255 17.5 31.1255C19.2405 31.1255 20.9097 30.4341 22.1404 29.2034C23.3711 27.9727 24.0625 26.3035 24.0625 24.563V18.5474C24.0625 17.8222 23.7744 17.1267 23.2616 16.6139C22.7488 16.1011 22.0533 15.813 21.3281 15.813H13.6719ZM13.125 18.5474C13.125 18.4023 13.1826 18.2632 13.2852 18.1607C13.3877 18.0581 13.5268 18.0005 13.6719 18.0005H21.3281C21.4732 18.0005 21.6123 18.0581 21.7148 18.1607C21.8174 18.2632 21.875 18.4023 21.875 18.5474V24.563C21.875 25.7233 21.4141 26.8361 20.5936 27.6566C19.7731 28.4771 18.6603 28.938 17.5 28.938C16.3397 28.938 15.2269 28.4771 14.4064 27.6566C13.5859 26.8361 13.125 25.7233 13.125 24.563V18.5474Z" fill="white"/>
</svg>
