<svg width="35" height="36" viewBox="0 0 35 36" fill="none" xmlns="http://www.w3.org/2000/svg">
<path d="M23.5922 30.8523C21.6891 31.7573 19.6074 32.2244 17.5 32.2195C9.66003 32.2195 3.28128 25.8407 3.28128 18.0007C3.28128 14.6375 4.43737 11.4612 6.56253 8.91386V11.4382H8.75003V4.87573H2.18753V7.06323H5.29597C2.5841 10.0598 1.08594 13.9592 1.09378 18.0007C1.09378 27.0471 8.45362 34.407 17.5 34.407C19.9328 34.412 22.3358 33.8724 24.5328 32.8276L23.5922 30.8523Z" fill="white"/>
<path d="M22.9688 10.3445C19.5125 10.3445 16.6786 13.0318 16.4303 16.4257C15.2279 15.3285 13.659 14.72 12.0312 14.7195H7.65625V19.0945C7.65625 22.7137 10.6006 25.657 14.2188 25.657H16.4062V30.032H18.5938V21.282H20.7812C24.3994 21.282 27.3438 18.3387 27.3438 14.7195V10.3445H22.9688ZM14.2188 23.4695C11.8059 23.4695 9.84375 21.5073 9.84375 19.0945V16.907H12.0312C14.4441 16.907 16.4062 18.8692 16.4062 21.282V21.9229L13.8983 19.415L12.3517 20.9615L14.8597 23.4695H14.2188ZM25.1562 14.7195C25.1562 17.1323 23.1941 19.0945 20.7812 19.0945H20.1403L22.6483 16.5865L21.1017 15.04L18.5938 17.5479V16.907C18.5938 14.4942 20.5559 12.532 22.9688 12.532H25.1562V14.7195Z" fill="white"/>
<path d="M33.9063 18.0008C33.9063 8.95436 26.5465 1.59452 17.5001 1.59452C15.0673 1.58945 12.6643 2.12911 10.4673 3.17389L11.4079 5.14921C13.3111 4.24423 15.3928 3.77707 17.5001 3.78202C25.3401 3.78202 31.7188 10.1608 31.7188 18.0008C31.7188 21.364 30.5628 24.5403 28.4376 27.0876V24.5633H26.2501V31.1258H32.8126V28.9383H29.7042C32.416 25.9417 33.9142 22.0423 33.9063 18.0008Z" fill="white"/>
</svg>
