<svg width="47" height="44" viewBox="0 0 47 44" fill="none" xmlns="http://www.w3.org/2000/svg">
<path d="M11.7322 0V3.72743L0 11.3656V43.0182H46.9289V11.3656L35.1967 3.72743V0H11.7322ZM15.643 3.91074H31.286V18.9427L23.4645 24.0144L15.643 18.9427V3.91074ZM17.5984 7.82149V11.7322H29.3306V7.82149H17.5984ZM11.7322 8.37144V16.3762L5.56059 12.4044L11.7322 8.37144ZM35.1967 8.37144L41.3683 12.4044L35.1967 16.3762V8.37144ZM17.5984 13.6876V17.5983H29.3306V13.6876H17.5984ZM3.91074 16.0096L23.4645 28.6584L43.0182 16.0096V39.1074H3.91074V16.0096Z" fill="url(#paint0_linear_1240_7062)"/>
<defs>
<linearGradient id="paint0_linear_1240_7062" x1="23.4645" y1="0" x2="23.4645" y2="43.0182" gradientUnits="userSpaceOnUse">
<stop stop-color="#C44EE1"/>
<stop offset="1" stop-color="#F53E3E"/>
</linearGradient>
</defs>
</svg>
