<svg width="15" height="17" viewBox="0 0 15 17" fill="none" xmlns="http://www.w3.org/2000/svg">
<path d="M7.26617 4.64905C6.59665 4.64905 5.97565 4.81643 5.40317 5.15119C4.83069 5.48594 4.37464 5.93956 4.03504 6.51205C3.69543 7.08453 3.52562 7.70795 3.52562 8.38232C3.52562 9.05668 3.693 9.68011 4.02776 10.2526C4.36251 10.8251 4.81856 11.2787 5.39589 11.6134C5.97323 11.9482 6.59908 12.1156 7.27344 12.1156C7.94781 12.1156 8.57123 11.9482 9.14372 11.6134C9.7162 11.2787 10.1698 10.8251 10.5046 10.2526C10.8393 9.68011 11.0067 9.05668 11.0067 8.38232C11.0067 7.70795 10.8393 7.08453 10.5046 6.51205C10.1698 5.93956 9.7162 5.48594 9.14372 5.15119C8.57123 4.81643 7.94538 4.64905 7.26617 4.64905ZM7.26617 10.6892C6.84893 10.6892 6.46323 10.5849 6.10907 10.3763C5.75491 10.1677 5.47352 9.8863 5.2649 9.53214C5.05629 9.17797 4.95198 8.79227 4.95198 8.37504C4.95198 7.95781 5.05629 7.57454 5.2649 7.22522C5.47352 6.87591 5.75491 6.59695 6.10907 6.38833C6.46323 6.17972 6.84893 6.07541 7.26617 6.07541C7.6834 6.07541 8.0691 6.17972 8.42326 6.38833C8.77742 6.59695 9.05881 6.87591 9.26743 7.22522C9.47605 7.57454 9.58035 7.95781 9.58035 8.37504C9.58035 8.79227 9.47605 9.17797 9.26743 9.53214C9.05881 9.8863 8.77742 10.1677 8.42326 10.3763C8.0691 10.5849 7.6834 10.6892 7.26617 10.6892ZM10.3226 1.18505H4.20969C3.46255 1.18505 2.76878 1.37426 2.12838 1.75268C1.49768 2.1214 0.997966 2.62353 0.629248 3.25908C0.260531 3.89464 0.0761719 4.58598 0.0761719 5.33312V11.4315C0.0761719 12.1787 0.260531 12.87 0.629248 13.5056C0.997966 14.1411 1.49768 14.6432 2.12838 15.012C2.76878 15.3904 3.46255 15.5796 4.20969 15.5796H10.3226C11.0698 15.5796 11.7684 15.3904 12.4185 15.012C13.0395 14.6432 13.5344 14.1484 13.9031 13.5274C14.2815 12.8773 14.4707 12.1787 14.4707 11.4315V5.33312C14.4707 4.58598 14.2815 3.88736 13.9031 3.23725C13.5344 2.61625 13.0395 2.1214 12.4185 1.75268C11.7684 1.37426 11.0698 1.18505 10.3226 1.18505ZM13.0444 11.4315C13.0444 11.9264 12.9231 12.3824 12.6805 12.7997C12.4379 13.2169 12.108 13.5468 11.6908 13.7894C11.2735 14.0319 10.8175 14.1532 10.3226 14.1532H4.20969C3.71483 14.1532 3.26121 14.0319 2.84883 13.7894C2.43645 13.5468 2.10897 13.2169 1.86639 12.7997C1.62382 12.3824 1.50253 11.9264 1.50253 11.4315V5.33312C1.50253 4.83826 1.62382 4.38222 1.86639 3.96498C2.10897 3.54775 2.43645 3.21785 2.84883 2.97527C3.26121 2.73269 3.71483 2.6114 4.20969 2.6114H10.3226C10.8175 2.6114 11.2735 2.73269 11.6908 2.97527C12.108 3.21785 12.4379 3.54775 12.6805 3.96498C12.9231 4.38222 13.0444 4.83826 13.0444 5.33312V11.4315ZM11.0649 3.55745C10.7932 3.55745 10.5604 3.65448 10.3663 3.84855C10.1722 4.04261 10.0752 4.27548 10.0752 4.54717C10.0752 4.81886 10.1722 5.0493 10.3663 5.23852C10.5604 5.42773 10.7932 5.52233 11.0649 5.52233C11.3366 5.52233 11.5671 5.42773 11.7563 5.23852C11.9455 5.0493 12.0401 4.81886 12.0401 4.54717C12.0401 4.27548 11.9455 4.04261 11.7563 3.84855C11.5671 3.65448 11.3366 3.55745 11.0649 3.55745Z" fill="white"/>
</svg>
