<svg width="42" height="41" viewBox="0 0 42 41" fill="none" xmlns="http://www.w3.org/2000/svg">
<path d="M14.84 32.5126C14.7528 30.2775 13.3337 28.1767 11.4194 26.2281C9.39567 24.1695 8.00689 21.5294 7.43038 18.6447C6.85388 15.7601 7.11582 12.762 8.18276 10.0331C9.2497 7.30431 11.0732 4.96865 13.4204 3.32442C15.7677 1.68019 18.5321 0.802002 21.3607 0.802002C24.1893 0.802002 26.9538 1.68019 29.301 3.32442C31.6482 4.96865 33.4717 7.30431 34.5387 10.0331C35.6056 12.762 35.8676 15.7601 35.2911 18.6447C34.7146 21.5294 33.3258 24.1695 31.302 26.2281C29.3271 28.238 27.8776 30.4119 27.8776 32.73V35.8821C27.8776 37.0614 27.4279 38.1924 26.6273 39.0263C25.8268 39.8602 24.741 40.3287 23.6089 40.3287H19.1068C17.9747 40.3287 16.889 39.8602 16.0884 39.0263C15.2879 38.1924 14.8381 37.0614 14.8381 35.8821L14.84 32.5126ZM9.97752 15.6256C9.9753 17.2068 10.2777 18.7725 10.8669 20.2298C11.4561 21.6871 12.3201 23.0064 13.4077 24.1096C14.8135 25.5404 16.2762 27.3368 17.0749 29.4593H25.6465C26.4452 27.3368 27.908 25.5384 29.3138 24.1096C30.6572 22.7431 31.6552 21.0516 32.2188 19.1859C32.7825 17.3203 32.8944 15.3383 32.5445 13.4166C32.1947 11.495 31.3939 9.69336 30.2135 8.17224C29.0332 6.65112 27.5099 5.45777 25.7795 4.69853C24.0491 3.93928 22.1652 3.63771 20.2958 3.8207C18.4263 4.00368 16.6294 4.66553 15.065 5.74728C13.5007 6.82903 12.2175 8.29708 11.3299 10.0206C10.4422 11.7442 9.97762 13.6697 9.97752 15.6256ZM17.6858 32.8446V35.8821C17.6858 36.7003 18.3214 37.3643 19.1087 37.3643H23.6089C23.9863 37.3643 24.3482 37.2082 24.615 36.9302C24.8819 36.6522 25.0318 36.2752 25.0318 35.8821V32.4237H17.6839V32.4573C17.687 32.5864 17.6889 32.7155 17.6858 32.8446ZM0.96582 15.6256C0.96582 15.2325 1.11573 14.8555 1.38258 14.5775C1.64942 14.2995 2.01134 14.1434 2.38872 14.1434H4.28592C4.6633 14.1434 5.02522 14.2995 5.29206 14.5775C5.55891 14.8555 5.70882 15.2325 5.70882 15.6256C5.70882 16.0187 5.55891 16.3957 5.29206 16.6736C5.02522 16.9516 4.6633 17.1078 4.28592 17.1078H2.38872C2.01134 17.1078 1.64942 16.9516 1.38258 16.6736C1.11573 16.3957 0.96582 16.0187 0.96582 15.6256ZM5.64242 4.45975C5.48047 4.36243 5.30171 4.29929 5.11634 4.27393C4.93097 4.24857 4.74263 4.2615 4.56205 4.31196C4.38147 4.36243 4.21221 4.44945 4.06392 4.56805C3.91563 4.68666 3.79122 4.83453 3.69779 5.00322C3.60436 5.17191 3.54374 5.35812 3.5194 5.55122C3.49505 5.74431 3.50746 5.94051 3.55591 6.12861C3.65375 6.50849 3.89246 6.83233 4.21952 7.02888L5.86249 8.017C6.18955 8.21355 6.57817 8.26672 6.94286 8.1648C7.30755 8.06288 7.61843 7.81422 7.80712 7.47354C7.99581 7.13285 8.04685 6.72804 7.949 6.34815C7.85116 5.96827 7.61245 5.64443 7.28539 5.44788L5.64242 4.45975ZM3.69779 26.2479C3.50949 25.9075 3.45867 25.503 3.5565 25.1236C3.65433 24.7441 3.89281 24.4206 4.21952 24.2242L5.86249 23.2361C6.18806 23.0555 6.56822 23.0137 6.92283 23.1194C7.27744 23.2251 7.57878 23.4701 7.76332 23.8028C7.94785 24.1355 8.00116 24.5298 7.912 24.9026C7.82284 25.2755 7.59818 25.5977 7.28539 25.8013L5.64242 26.7894C5.48061 26.8869 5.30195 26.9503 5.11664 26.9758C4.93132 27.0014 4.74299 26.9887 4.56239 26.9384C4.3818 26.8881 4.21249 26.8012 4.06414 26.6828C3.91579 26.5643 3.7913 26.4165 3.69779 26.2479ZM38.4355 14.1434C38.0581 14.1434 37.6962 14.2995 37.4294 14.5775C37.1625 14.8555 37.0126 15.2325 37.0126 15.6256C37.0126 16.0187 37.1625 16.3957 37.4294 16.6736C37.6962 16.9516 38.0581 17.1078 38.4355 17.1078H40.3327C40.7101 17.1078 41.072 16.9516 41.3389 16.6736C41.6057 16.3957 41.7556 16.0187 41.7556 15.6256C41.7556 15.2325 41.6057 14.8555 41.3389 14.5775C41.072 14.2995 40.7101 14.1434 40.3327 14.1434H38.4355ZM34.9162 23.7776C35.0097 23.609 35.1342 23.4612 35.2826 23.3428C35.4309 23.2243 35.6002 23.1374 35.7808 23.0871C35.9614 23.0369 36.1497 23.0241 36.3351 23.0497C36.5204 23.0752 36.699 23.1386 36.8608 23.2361L38.5038 24.2242C38.6724 24.3177 38.8212 24.4457 38.9413 24.6004C39.0614 24.7551 39.1504 24.9334 39.203 25.1246C39.2555 25.3159 39.2706 25.5163 39.2472 25.7137C39.2239 25.9112 39.1626 26.1018 39.067 26.274C38.9715 26.4463 38.8436 26.5968 38.691 26.7165C38.5385 26.8362 38.3643 26.9226 38.179 26.9707C37.9936 27.0188 37.8009 27.0275 37.6122 26.9964C37.4236 26.9652 37.2429 26.8948 37.0809 26.7894L35.4379 25.8013C35.1112 25.6049 34.8728 25.2814 34.7749 24.9019C34.6771 24.5225 34.7279 24.1181 34.9162 23.7776ZM35.4379 5.44788C35.1109 5.64443 34.8722 5.96827 34.7743 6.34815C34.6765 6.72804 34.7275 7.13285 34.9162 7.47354C35.1049 7.81422 35.4158 8.06288 35.7805 8.1648C36.1452 8.26672 36.5338 8.21355 36.8608 8.017L38.5038 7.02888C38.8309 6.83233 39.0696 6.50849 39.1674 6.12861C39.2653 5.74872 39.2142 5.34391 39.0256 5.00322C38.8369 4.66254 38.526 4.41388 38.1613 4.31196C37.7966 4.21004 37.408 4.2632 37.0809 4.45975L35.4379 5.44788Z" fill="white"/>
</svg>
