<svg width="28" height="28" viewBox="0 0 28 28" fill="none" xmlns="http://www.w3.org/2000/svg">
<path d="M14.2698 0.632324C6.8302 0.632324 0.799805 6.66386 0.799805 14.1023C0.799805 21.5419 6.8302 27.5723 14.2698 27.5723C21.7082 27.5723 27.7398 21.5408 27.7398 14.1023C27.7398 6.66386 21.7082 0.632324 14.2698 0.632324ZM10.9699 17.7194C10.9699 18.4474 10.38 19.0362 9.65314 19.0362C8.92515 19.0362 8.33638 18.4474 8.33638 17.7194V12.1055C8.33638 11.3775 8.92515 10.7876 9.65314 10.7876C10.38 10.7876 10.9699 11.3775 10.9699 12.1055V17.7194ZM20.2717 17.6247C20.2717 18.6539 19.6703 19.0225 18.6411 19.0225H13.9058C12.8766 19.0225 12.0425 18.1884 12.0425 17.1592V12.5014C12.0425 12.5014 11.9501 11.7267 12.8081 10.9987C13.2931 10.5868 14.0131 9.80058 14.5163 8.84667C15.5158 6.95141 16.1137 6.39914 16.569 6.54748C18.2554 7.09404 17.4122 9.59406 16.8679 10.6381H18.4083C19.4364 10.6381 20.2717 11.4722 20.2717 12.5014V17.6247Z" fill="url(#paint0_linear_994_1903)"/>
<defs>
<linearGradient id="paint0_linear_994_1903" x1="14.2698" y1="0.632324" x2="14.2698" y2="27.5723" gradientUnits="userSpaceOnUse">
<stop stop-color="#C44EE1"/>
<stop offset="1" stop-color="#F53E3E"/>
</linearGradient>
</defs>
</svg>
