<svg width="40" height="59" viewBox="0 0 40 59" fill="none" xmlns="http://www.w3.org/2000/svg">
<path d="M18.1605 45.725C18.5472 46.3127 19.2267 46.7045 20 46.7045C20.7733 46.7045 21.4528 46.3127 21.8512 45.725L34.7627 26.1121C36.4968 23.4732 37.5044 20.5693 37.5044 17.2045C37.4927 7.47871 29.7247 0 20 0C10.2753 0 2.50732 7.47871 2.50732 17.2045C2.50732 20.5693 3.51494 23.4732 5.24897 26.1121L18.1605 45.725ZM20 7.375C25.5184 7.375 29.9941 11.777 29.9941 17.2045C29.9941 22.632 25.5184 27.034 20 27.034C14.4815 27.034 10.0059 22.632 10.0059 17.2045C10.0059 11.777 14.4815 7.375 20 7.375ZM32.8178 37.2783L20 54.0795L7.18219 37.2783C2.80023 39.5369 0 42.9133 0 46.7045C0 53.4918 8.95138 59 20 59C31.0486 59 40 53.4918 40 46.7045C40 42.9133 37.1998 39.5369 32.8178 37.2783Z" fill="url(#paint0_linear_1240_7051)"/>
<defs>
<linearGradient id="paint0_linear_1240_7051" x1="20" y1="0" x2="20" y2="59" gradientUnits="userSpaceOnUse">
<stop stop-color="#C44EE1"/>
<stop offset="1" stop-color="#F53E3E"/>
</linearGradient>
</defs>
</svg>
