<svg width="16" height="15" viewBox="0 0 16 15" fill="none" xmlns="http://www.w3.org/2000/svg">
<path d="M7.47035 0.697276C7.66596 0.0952687 8.51764 0.0952695 8.71324 0.697277L9.99894 4.65424C10.0864 4.92347 10.3373 5.10575 10.6204 5.10575H14.781C15.414 5.10575 15.6772 5.91574 15.1651 6.2878L11.7991 8.73334C11.57 8.89973 11.4742 9.19467 11.5617 9.46389L12.8474 13.4209C13.043 14.0229 12.354 14.5235 11.8419 14.1514L8.47587 11.7059C8.24685 11.5395 7.93674 11.5395 7.70773 11.7059L4.34173 14.1514C3.82963 14.5235 3.14061 14.0229 3.33621 13.4209L4.62191 9.46389C4.70938 9.19467 4.61355 8.89973 4.38454 8.73334L1.01854 6.2878C0.506444 5.91574 0.769628 5.10575 1.40262 5.10575H5.56321C5.8463 5.10575 6.09718 4.92347 6.18466 4.65424L7.47035 0.697276Z" fill="#050505"/>
</svg>
