<svg width="19" height="21" viewBox="0 0 19 21" fill="none" xmlns="http://www.w3.org/2000/svg">
<path d="M17.0535 5.46166C15.7193 5.74062 13.7302 6.15907 11.0861 6.71699L1.78934 8.66368C1.66805 8.68794 1.56799 8.71523 1.48915 8.74555C1.41031 8.77587 1.37999 8.80316 1.39818 8.82742C1.41638 8.85168 1.44367 8.86987 1.48005 8.882L4.8822 11.52C4.9671 11.5928 5.00955 11.6838 5.00955 11.7929V15.5044C5.00955 15.5407 5.04594 15.5468 5.11871 15.5226C5.19149 15.4983 5.27639 15.4498 5.37342 15.377C5.68877 15.1829 6.27702 14.8009 7.13817 14.2308L8.10242 13.5941C8.49054 13.873 9.07273 14.2915 9.84897 14.8494L10.5949 15.377C10.6919 15.4498 10.8011 15.474 10.9224 15.4498C11.0437 15.4255 11.1407 15.3588 11.2135 15.2497L17.2536 5.75275C17.3264 5.64359 17.3446 5.56172 17.3082 5.50714C17.2718 5.45256 17.1869 5.4374 17.0535 5.46166ZM15.2888 6.82615C15.1796 6.8868 15.0583 6.96564 14.9249 7.06267C11.5288 9.22161 8.98782 10.8469 7.30191 11.9385C7.18062 12.0112 7.08359 12.1083 7.01082 12.2296C6.73185 12.6905 6.32554 13.3818 5.79187 14.3036C5.77974 14.3279 5.76154 14.3521 5.73729 14.3764C5.7009 14.4249 5.68271 14.3036 5.68271 14.0125V11.5382C5.68271 11.4776 5.6918 11.4291 5.71 11.3927C5.72819 11.3563 5.76761 11.326 5.82825 11.3017C7.2352 10.6225 8.63002 9.94327 10.0127 9.26406L15.4707 6.62603L15.5617 6.58964C15.5859 6.58964 15.5708 6.6139 15.5162 6.66241C15.4616 6.71093 15.3858 6.76551 15.2888 6.82615Z" fill="white"/>
</svg>
