<svg width="15" height="17" viewBox="0 0 15 17" fill="none" xmlns="http://www.w3.org/2000/svg">
<path d="M13.7206 4.43137C13.2645 4.63513 12.76 4.77583 12.2069 4.85345C12.4786 4.6982 12.7139 4.49444 12.9128 4.24216C13.1117 3.98988 13.2597 3.70849 13.3567 3.39799C12.8618 3.70849 12.3088 3.92195 11.6975 4.03839C11.4646 3.77641 11.1808 3.57264 10.846 3.4271C10.5113 3.28155 10.1595 3.20878 9.79082 3.20878C9.31537 3.20878 8.87873 3.32764 8.4809 3.56537C8.08307 3.80309 7.76772 4.12087 7.53485 4.51869C7.30197 4.91652 7.18554 5.35316 7.18554 5.82861C7.18554 6.06149 7.20494 6.2604 7.24375 6.42535C6.17641 6.36713 5.17214 6.09545 4.23094 5.61029C3.30915 5.13484 2.51835 4.49444 1.85854 3.68908C1.62566 4.10631 1.50922 4.54053 1.50922 4.99172C1.50922 5.44291 1.61353 5.86015 1.82215 6.24342C2.03077 6.62669 2.31458 6.93962 2.6736 7.18219C2.24666 7.17249 1.85368 7.06091 1.49467 6.84744V6.8911C1.49467 7.5218 1.69116 8.07488 2.08413 8.55033C2.47711 9.02578 2.97924 9.32658 3.59054 9.45272C3.37707 9.51094 3.1442 9.54005 2.89192 9.54005C2.71726 9.54005 2.55716 9.52549 2.41161 9.49638C2.57657 10.0204 2.88221 10.4497 3.32856 10.7845C3.7749 11.1192 4.27946 11.2915 4.84224 11.3012C4.3959 11.6602 3.89376 11.9367 3.33583 12.1308C2.7779 12.3248 2.19814 12.4219 1.59655 12.4219C1.47041 12.4219 1.27635 12.4122 1.01437 12.3928H0.970703C2.18359 13.169 3.52262 13.5571 4.98778 13.5571C6.14245 13.5571 7.20494 13.334 8.17525 12.8876C9.06794 12.4704 9.84418 11.8882 10.504 11.1411C11.1153 10.4424 11.5907 9.64678 11.9304 8.7541C12.2506 7.89052 12.4107 7.01724 12.4107 6.13426V5.78495C12.9249 5.41623 13.3616 4.96504 13.7206 4.43137Z" fill="white"/>
</svg>
